<?xml version="1.0" encoding="UTF-8"?>
<svg version="1.1" xmlns="http://www.w3.org/2000/svg" width="97" height="84">
<path d="M0 0 C3.00664254 1.34283599 5.038402 2.81570805 7.3125 5.1875 C7.91320313 5.80367188 8.51390625 6.41984375 9.1328125 7.0546875 C10.37760417 8.3515625 11.62239583 9.6484375 12.8671875 10.9453125 C13.46789063 11.56148437 14.06859375 12.17765625 14.6875 12.8125 C15.22761719 13.37582031 15.76773438 13.93914063 16.32421875 14.51953125 C18.14736025 16.1301854 19.73260556 17.11998267 22 18 C25.22959919 17.58194673 25.22959919 17.58194673 28.6875 16.625 C41.93934745 13.55629597 41.93934745 13.55629597 48.3125 16.5625 C53.48326887 21.25226712 55.31779775 25.67966467 55.65673828 32.45922852 C55.70290283 33.5622229 55.70290283 33.5622229 55.75 34.6875 C56.04431304 40.32020265 56.04431304 40.32020265 58.8984375 44.9921875 C61.32367038 46.25355469 61.32367038 46.25355469 65 47 C65 47.99 65 48.98 65 50 C59.65116279 55 59.65116279 55 57 55 C57.0825 55.86625 57.165 56.7325 57.25 57.625 C56.93895669 61.82408465 55.5594578 63.70926854 53 67 C52.566875 67.5775 52.13375 68.155 51.6875 68.75 C46.71883302 72.43049406 40.43693101 72.25639507 34.5390625 72.125 C33.35405655 72.11364014 33.35405655 72.11364014 32.14511108 72.10205078 C28.79731855 72.06966465 25.45003411 72.01341519 22.10253906 71.95898438 C19.64390386 71.92250326 17.18535071 71.89851381 14.7265625 71.875 C13.98564362 71.85840332 13.24472473 71.84180664 12.48135376 71.82470703 C7.75933472 71.78122827 3.53982978 72.39228849 -1.03897095 73.5546875 C-3.39274724 74.08918545 -5.59537911 74.15513683 -8 74 C-7.39770907 70.25719205 -5.69920805 68.12748428 -3.375 65.1875 C-0.22213706 60.94378117 -0.22213706 60.94378117 -0.0625 55.875 C-0.371875 54.92625 -0.68125 53.9775 -1 53 C-1.78375 52.773125 -2.5675 52.54625 -3.375 52.3125 C-6 51 -6 51 -7.3125 48.625 C-8 46 -8 46 -8 42 C-9.2375 41.835 -10.475 41.67 -11.75 41.5 C-14.49745255 40.83749371 -15.67747968 40.41821317 -17.421875 38.15625 C-20 33 -20 33 -20 30 C-20.721875 29.938125 -21.44375 29.87625 -22.1875 29.8125 C-25.95115098 28.72522305 -27.53870956 27.00824387 -30 24 C-30.8125 21.1875 -30.8125 21.1875 -31 19 C-27.29252213 17.76417404 -25.20184564 18.30883986 -21.36328125 18.99609375 C-20.06455078 19.22490234 -18.76582031 19.45371094 -17.42773438 19.68945312 C-16.0559607 19.93864311 -14.68421626 20.18799414 -13.3125 20.4375 C-11.92915649 20.68361832 -10.54569402 20.92906904 -9.16210938 21.17382812 C-5.77351005 21.77598341 -2.38628279 22.38497338 1 23 C2.13381787 18.13419959 2.13381787 18.13419959 0.5625 13.6875 C-1.77713551 9.66332692 -1.4394586 5.56360849 -1 1 C-0.67 0.67 -0.34 0.34 0 0 Z " fill="#6C53E6" transform="translate(31,0)"/>
<path d="M0 0 C2.99051522 1.34094131 5.05670845 2.81748865 7.34765625 5.15234375 C7.95287109 5.76400391 8.55808594 6.37566406 9.18164062 7.00585938 C9.80232422 7.64330078 10.42300781 8.28074219 11.0625 8.9375 C11.99932617 9.88786133 11.99932617 9.88786133 12.95507812 10.85742188 C14.11828251 12.03800605 15.27941431 13.22063864 16.43774414 14.40600586 C17.9483731 15.94732427 19.47394917 17.47394917 21 19 C13.08 21.475 13.08 21.475 5 24 C6.711875 24.391875 8.42375 24.78375 10.1875 25.1875 C15.26211027 26.55901629 17.81198788 27.85558424 21 32 C24.09712074 38.19424148 20.88679932 48.5848823 19 55 C13.74482407 55.14444855 8.91134882 54.6552529 3.75 53.6875 C3.04359375 53.56955078 2.3371875 53.45160156 1.609375 53.33007812 C-1.23617526 52.8046214 -3.55852465 52.3126747 -5.94140625 50.625 C-7.67527506 47.96341541 -7.70718457 45.1038436 -8 42 C-9.2375 41.835 -10.475 41.67 -11.75 41.5 C-14.49745255 40.83749371 -15.67747968 40.41821317 -17.421875 38.15625 C-20 33 -20 33 -20 30 C-20.721875 29.938125 -21.44375 29.87625 -22.1875 29.8125 C-25.95115098 28.72522305 -27.53870956 27.00824387 -30 24 C-30.8125 21.1875 -30.8125 21.1875 -31 19 C-27.29252213 17.76417404 -25.20184564 18.30883986 -21.36328125 18.99609375 C-20.06455078 19.22490234 -18.76582031 19.45371094 -17.42773438 19.68945312 C-16.0559607 19.93864311 -14.68421626 20.18799414 -13.3125 20.4375 C-11.92915649 20.68361832 -10.54569402 20.92906904 -9.16210938 21.17382812 C-5.77351005 21.77598341 -2.38628279 22.38497338 1 23 C2.13381787 18.13419959 2.13381787 18.13419959 0.5625 13.6875 C-1.77713551 9.66332692 -1.4394586 5.56360849 -1 1 C-0.67 0.67 -0.34 0.34 0 0 Z " fill="#FD9B14" transform="translate(31,0)"/>
<path d="M0 0 C2.875 0.0625 2.875 0.0625 6 1 C6.45375 1.928125 6.9075 2.85625 7.375 3.8125 C9.16768562 7.32892179 9.45736732 7.4173783 12.875 8.75 C16.80843575 10.43064982 17.83994064 12.16079585 19.5 16.0625 C20.950866 19.74243133 20.950866 19.74243133 23.9765625 22 C25.38315418 22.36827128 26.79068073 22.7329945 28.19921875 23.09375 C30 24 30 24 31.14453125 26.09375 C31.87978563 28.38281783 32.46229738 30.65810512 33 33 C33.33 33.66 33.66 34.32 34 35 C26.69034995 34.40084836 26.69034995 34.40084836 24.0625 32.875 C22.45736848 30.04241497 22.30218074 27.20311579 22 24 C20.7625 23.835 19.525 23.67 18.25 23.5 C15.50254745 22.83749371 14.32252032 22.41821317 12.578125 20.15625 C10 15 10 15 10 12 C8.9171875 11.9071875 8.9171875 11.9071875 7.8125 11.8125 C4.04884902 10.72522305 2.46129044 9.00824387 0 6 C-0.875 3.25 -0.875 3.25 -1 1 C-0.67 0.67 -0.34 0.34 0 0 Z " fill="#FE8112" transform="translate(1,18)"/>
<path d="M0 0 C2.9375 2.0625 2.9375 2.0625 5 5 C5.06625411 8.8427383 4.81899419 10.99200716 2.375 14 C-1.11581787 15.46981805 -3.39148956 14.98413921 -7 14 C-9.5881216 11.74582958 -9.94242643 10.39479021 -10.4375 7 C-10 4 -10 4 -8.375 1.625 C-5.24988831 -0.51323431 -3.71837535 -0.6829669 0 0 Z " fill="#F2F0FA" transform="translate(71,30)"/>
<path d="M0 0 C5.39882424 4.59474404 10.71333087 9.27676273 16 14 C13.57869669 16.42130331 12.19888623 16.52840504 8.875 17.125 C7.96492188 17.29257812 7.05484375 17.46015625 6.1171875 17.6328125 C5.41851562 17.75398438 4.71984375 17.87515625 4 18 C1.13035626 11.74827614 -0.51137226 6.90352555 0 0 Z " fill="#FD9F13" transform="translate(36,4)"/>
<path d="M0 0 C1.29585916 0.42492126 2.5866044 0.86545882 3.875 1.3125 C4.59429687 1.55613281 5.31359375 1.79976562 6.0546875 2.05078125 C8 3 8 3 10 6 C8.8803014 7.00593243 7.7540588 8.0045849 6.625 9 C5.99851562 9.556875 5.37203125 10.11375 4.7265625 10.6875 C3 12 3 12 1 12 C-0.3271261 8.0186217 -0.06915913 4.14954773 0 0 Z " fill="#F99C19" transform="translate(87,43)"/>
<path d="M0 0 C1.66611905 -0.042721 3.33382885 -0.04063832 5 0 C6 1 6 1 6.0625 3.5625 C6.041875 4.366875 6.02125 5.17125 6 6 C3.625 6.625 3.625 6.625 1 7 C0.34 6.34 -0.32 5.68 -1 5 C-0.625 2.375 -0.625 2.375 0 0 Z " fill="#5C4E7A" transform="translate(67,35)"/>
</svg>
